<svg width="40" height="60" viewBox="0 0 55 76" fill="none" xmlns="http://www.w3.org/2000/svg">
<path d="M9.16667 0H33.4263C34.6417 0.000267901 35.8073 0.498793 36.6667 1.38592L53.6571 18.9205C54.5167 19.8073 54.9997 21.0102 55 22.2646V66.2216C55 68.7306 54.0342 71.1368 52.3151 72.911C50.5961 74.6851 48.2645 75.6818 45.8333 75.6818H9.16667C6.73552 75.6818 4.40394 74.6851 2.68485 72.911C0.965771 71.1368 0 68.7306 0 66.2216V9.46023C0 6.95122 0.965771 4.54497 2.68485 2.77084C4.40394 0.9967 6.73552 0 9.16667 0ZM34.375 7.09517V16.5554C34.375 17.8099 34.8579 19.013 35.7174 19.9001C36.577 20.7872 37.7428 21.2855 38.9583 21.2855H48.125L34.375 7.09517Z" fill="black"/>
</svg>
